<svg style="display:none" xmlns="http://www.w3.org/2000/svg">
    <symbol id="icon-chevron-left" viewBox="0 0 24 24">
        <path fill="currentColor" d="M15.41,16.58L10.83,12L15.41,7.41L14,6L8,12L14,18L15.41,16.58Z" />
    </symbol>
    <symbol id="icon-chevron-right" viewBox="0 0 24 24">
        <path fill="currentColor" d="M8.59,16.58L13.17,12L8.59,7.41L10,6L16,12L10,18L8.59,16.58Z" />
    </symbol>
    <symbol id="icon-check" viewBox="0 0 24 24">
        <path fill="currentColor" d="M21,7L9,19L3.5,13.5L4.91,12.09L9,16.17L19.59,5.59L21,7Z" />
    </symbol>
    <symbol id="icon-close" viewBox="0 0 24 24">
        <path fill="currentColor" d="M19,6.41L17.59,5L12,10.59L6.41,5L5,6.41L10.59,12L5,17.59L6.41,19L12,13.41L17.59,19L19,17.59L13.41,12L19,6.41Z" />
    </symbol>
    <symbol id="icon-login" viewBox="0 0 24 24">
        <path fill="currentColor" d="M19,3H5C3.89,3 3,3.89 3,5V9H5V5H19V19H5V15H3V19A2,2 0 0,0 5,21H19A2,2 0 0,0 21,19V5C21,3.89 20.1,3 19,3M10.08,15.58L11.5,17L16.5,12L11.5,7L10.08,8.41L12.67,11H3V13H12.67L10.08,15.58Z" />
    </symbol>
    <symbol id="icon-account" viewBox="0 0 24 24">
        <path fill="currentColor" d="M12,4A4,4 0 0,1 16,8A4,4 0 0,1 12,12A4,4 0 0,1 8,8A4,4 0 0,1 12,4M12,14C16.42,14 20,15.79 20,18V20H4V18C4,15.79 7.58,14 12,14Z" />
    </symbol>
    <symbol id="icon-send-outline" viewBox="0 0 24 24">
        <path fill="currentColor" d="M4 6.03L11.5 9.25L4 8.25L4 6.03M11.5 14.75L4 17.97V15.75L11.5 14.75M2 3L2 10L17 12L2 14L2 21L23 12L2 3Z" />
    </symbol>
    <symbol id="icon-send" viewBox="0 0 24 24">
        <path fill="currentColor" d="M2,21L23,12L2,3V10L17,12L2,14V21Z" />
    </symbol>
</svg>
