<svg style="display:none" xmlns="http://www.w3.org/2000/svg">
    <symbol id="icon-chevron-left" viewBox="0 0 24 24">
        <path fill="currentColor" d="M15.41,16.58L10.83,12L15.41,7.41L14,6L8,12L14,18L15.41,16.58Z" />
    </symbol>
    <symbol id="icon-chevron-right" viewBox="0 0 24 24">
        <path fill="currentColor" d="M8.59,16.58L13.17,12L8.59,7.41L10,6L16,12L10,18L8.59,16.58Z" />
    </symbol>
    <symbol id="icon-check" viewBox="0 0 24 24">
        <path fill="currentColor" d="M21,7L9,19L3.5,13.5L4.91,12.09L9,16.17L19.59,5.59L21,7Z" />
    </symbol>
    <symbol id="icon-close" viewBox="0 0 24 24">
        <path fill="currentColor" d="M19,6.41L17.59,5L12,10.59L6.41,5L5,6.41L10.59,12L5,17.59L6.41,19L12,13.41L17.59,19L19,17.59L13.41,12L19,6.41Z" />
    </symbol>
    <symbol id="icon-login" viewBox="0 0 24 24">
        <path fill="currentColor" d="M19,3H5C3.89,3 3,3.89 3,5V9H5V5H19V19H5V15H3V19A2,2 0 0,0 5,21H19A2,2 0 0,0 21,19V5C21,3.89 20.1,3 19,3M10.08,15.58L11.5,17L16.5,12L11.5,7L10.08,8.41L12.67,11H3V13H12.67L10.08,15.58Z" />
    </symbol>
    <symbol id="icon-account" viewBox="0 0 24 24">
        <path fill="currentColor" d="M12,4A4,4 0 0,1 16,8A4,4 0 0,1 12,12A4,4 0 0,1 8,8A4,4 0 0,1 12,4M12,14C16.42,14 20,15.79 20,18V20H4V18C4,15.79 7.58,14 12,14Z" />
    </symbol>
    <symbol id="icon-send-outline" viewBox="0 0 24 24">
        <path fill="currentColor" d="M4 6.03L11.5 9.25L4 8.25L4 6.03M11.5 14.75L4 17.97V15.75L11.5 14.75M2 3L2 10L17 12L2 14L2 21L23 12L2 3Z" />
    </symbol>
    <symbol id="icon-send" viewBox="0 0 24 24">
        <path fill="currentColor" d="M2,21L23,12L2,3V10L17,12L2,14V21Z" />
    </symbol>
    <symbol id="icon-eye-off" viewBox="0 0 24 24">
        <path fill="currentColor" d="M2,5.27L3.28,4L20,20.72L18.73,22L15.65,18.92C14.5,19.3 13.28,19.5 12,19.5C7,19.5 2.73,16.39 1,12C1.69,10.24 2.79,8.69 4.19,7.46L2,5.27M12,9A3,3 0 0,1 15,12C15,12.35 14.94,12.69 14.83,13L11,9.17C11.31,9.06 11.65,9 12,9M12,4.5C17,4.5 21.27,7.61 23,12C22.18,14.08 20.79,15.88 19,17.19L17.58,15.76C18.94,14.82 20.06,13.54 20.82,12C19.17,8.64 15.76,6.5 12,6.5C10.91,6.5 9.84,6.68 8.84,7L7.3,5.47C8.74,4.85 10.33,4.5 12,4.5M3.18,12C4.83,15.36 8.24,17.5 12,17.5C12.69,17.5 13.37,17.43 14,17.29L11.72,15C10.29,14.85 9.15,13.71 9,12.28L5.6,8.87C4.61,9.72 3.78,10.78 3.18,12Z" />
    </symbol>
    <symbol id="icon-eye" viewBox="0 0 24 24">
        <path fill="currentColor" d="M12,9A3,3 0 0,1 15,12A3,3 0 0,1 12,15A3,3 0 0,1 9,12A3,3 0 0,1 12,9M12,4.5C17,4.5 21.27,7.61 23,12C21.27,16.39 17,19.5 12,19.5C7,19.5 2.73,16.39 1,12C2.73,7.61 7,4.5 12,4.5M3.18,12C4.83,15.36 8.24,17.5 12,17.5C15.76,17.5 19.17,15.36 20.82,12C19.17,8.64 15.76,6.5 12,6.5C8.24,6.5 4.83,8.64 3.18,12Z" />
    </symbol>
    <symbol id="icon-fast-outline" viewBox="0 0 24 24">
        <path fill="currentColor" d="M22 5.5H9C7.9 5.5 7 6.4 7 7.5V16.5C7 17.61 7.9 18.5 9 18.5H22C23.11 18.5 24 17.61 24 16.5V7.5C24 6.4 23.11 5.5 22 5.5M22 16.5H9V9.17L15.5 12.5L22 9.17V16.5M15.5 10.81L9 7.5H22L15.5 10.81M5 16.5C5 16.67 5.03 16.83 5.05 17H1C.448 17 0 16.55 0 16S.448 15 1 15H5V16.5M3 7H5.05C5.03 7.17 5 7.33 5 7.5V9H3C2.45 9 2 8.55 2 8S2.45 7 3 7M1 12C1 11.45 1.45 11 2 11H5V13H2C1.45 13 1 12.55 1 12Z" />
    </symbol>
    <symbol id="icon-email-check-outline" viewBox="0 0 24 24">
        <path fill="currentColor" d="M13 19C13 18.66 13.04 18.33 13.09 18H4V8L12 13L20 8V13.09C20.72 13.21 21.39 13.46 22 13.81V6C22 4.9 21.1 4 20 4H4C2.9 4 2 4.9 2 6V18C2 19.1 2.9 20 4 20H13.09C13.04 19.67 13 19.34 13 19M20 6L12 11L4 6H20M17.75 22.16L15 19.16L16.16 18L17.75 19.59L21.34 16L22.5 17.41L17.75 22.16" />
    </symbol>
    <symbol id="icon-email-outline" viewBox="0 0 24 24">
        <path fill="currentColor" d="M22 6C22 4.9 21.1 4 20 4H4C2.9 4 2 4.9 2 6V18C2 19.1 2.9 20 4 20H20C21.1 20 22 19.1 22 18V6M20 6L12 11L4 6H20M20 18H4V8L12 13L20 8V18Z" />
    </symbol>

</svg>
