<svg style="display:none" xmlns="http://www.w3.org/2000/svg">
    <symbol id="icon-chevron-left" viewBox="0 0 24 24">
        <path fill="currentColor" d="M15.41,16.58L10.83,12L15.41,7.41L14,6L8,12L14,18L15.41,16.58Z" />
    </symbol>
    <symbol id="icon-chevron-right" viewBox="0 0 24 24">
        <path fill="currentColor" d="M8.59,16.58L13.17,12L8.59,7.41L10,6L16,12L10,18L8.59,16.58Z" />
    </symbol>
    <symbol id="icon-check" viewBox="0 0 24 24">
        <path fill="currentColor" d="M21,7L9,19L3.5,13.5L4.91,12.09L9,16.17L19.59,5.59L21,7Z" />
    </symbol>
    <symbol id="icon-check-all" viewBox="0 0 24 24">
        <title>check-all</title>
        <path fill="currentColor" d="M0.41,13.41L6,19L7.41,17.58L1.83,12M22.24,5.58L11.66,16.17L7.5,12L6.07,13.41L11.66,19L23.66,7M18,7L16.59,5.58L10.24,11.93L11.66,13.34L18,7Z" />
    </symbol>
    <symbol id="icon-tune-variant" viewBox="0 0 24 24">
        <title>tune-variant</title>
        <path fill="currentColor" d="M8 13C6.14 13 4.59 14.28 4.14 16H2V18H4.14C4.59 19.72 6.14 21 8 21S11.41 19.72 11.86 18H22V16H11.86C11.41 14.28 9.86 13 8 13M8 19C6.9 19 6 18.1 6 17C6 15.9 6.9 15 8 15S10 15.9 10 17C10 18.1 9.1 19 8 19M19.86 6C19.41 4.28 17.86 3 16 3S12.59 4.28 12.14 6H2V8H12.14C12.59 9.72 14.14 11 16 11S19.41 9.72 19.86 8H22V6H19.86M16 9C14.9 9 14 8.1 14 7C14 5.9 14.9 5 16 5S18 5.9 18 7C18 8.1 17.1 9 16 9Z" />
    </symbol>
    <symbol id="icon-update" viewBox="0 0 24 24">
        <title>update</title>
        <path fill="currentColor" d="M21,10.12H14.22L16.96,7.3C14.23,4.6 9.81,4.5 7.08,7.2C4.35,9.91 4.35,14.28 7.08,17C9.81,19.7 14.23,19.7 16.96,17C18.32,15.65 19,14.08 19,12.1H21C21,14.08 20.12,16.65 18.36,18.39C14.85,21.87 9.15,21.87 5.64,18.39C2.14,14.92 2.11,9.28 5.62,5.81C9.13,2.34 14.76,2.34 18.27,5.81L21,3V10.12M12.5,8V12.25L16,14.33L15.28,15.54L11,13V8H12.5Z" />
    </symbol>
    <symbol id="icon-invite" viewBox="0 0 24 24">
        <title>Invite</title>
        <path fill="currentColor" d="M22 10V6C22 4.89 21.1 4 20 4H4C2.9 4 2 4.89 2 6V10C3.11 10 4 10.9 4 12S3.11 14 2 14V18C2 19.1 2.9 20 4 20H20C21.1 20 22 19.1 22 18V14C20.9 14 20 13.1 20 12S20.9 10 22 10M20 8.54C18.81 9.23 18 10.53 18 12S18.81 14.77 20 15.46V18H4V15.46C5.19 14.77 6 13.47 6 12C6 10.5 5.2 9.23 4 8.54L4 6H20V8.54M11 15H13V17H11M11 11H13V13H11M11 7H13V9H11Z" />
    </symbol>
    <symbol id="icon-close" viewBox="0 0 24 24">
        <path fill="currentColor" d="M19,6.41L17.59,5L12,10.59L6.41,5L5,6.41L10.59,12L5,17.59L6.41,19L12,13.41L17.59,19L19,17.59L13.41,12L19,6.41Z" />
    </symbol>
    <symbol id="icon-login" viewBox="0 0 24 24">
        <title>login</title>
        <path fill="currentColor" d="M19,3H5C3.89,3 3,3.89 3,5V9H5V5H19V19H5V15H3V19A2,2 0 0,0 5,21H19A2,2 0 0,0 21,19V5C21,3.89 20.1,3 19,3M10.08,15.58L11.5,17L16.5,12L11.5,7L10.08,8.41L12.67,11H3V13H12.67L10.08,15.58Z" />
    </symbol>
    <symbol id="icon-logout" viewBox="0 0 24 24">
        <title>logout</title>
        <path fill="currentColor" d="M16,17V14H9V10H16V7L21,12L16,17M14,2A2,2 0 0,1 16,4V6H14V4H5V20H14V18H16V20A2,2 0 0,1 14,22H5A2,2 0 0,1 3,20V4A2,2 0 0,1 5,2H14Z" />
    </symbol>
    <symbol id="icon-moon" viewBox="0 0 24 24">
        <title>Dark Theme</title>
        <path fill="currentColor" d="M2 12A10 10 0 0 0 15 21.54A10 10 0 0 1 15 2.46A10 10 0 0 0 2 12Z" />
    </symbol>
    <symbol id="icon-account" viewBox="0 0 24 24">
        <path fill="currentColor" d="M12,4A4,4 0 0,1 16,8A4,4 0 0,1 12,12A4,4 0 0,1 8,8A4,4 0 0,1 12,4M12,14C16.42,14 20,15.79 20,18V20H4V18C4,15.79 7.58,14 12,14Z" />
    </symbol>
    <symbol id="icon-send-outline" viewBox="0 0 24 24">
        <path fill="currentColor" d="M4 6.03L11.5 9.25L4 8.25L4 6.03M11.5 14.75L4 17.97V15.75L11.5 14.75M2 3L2 10L17 12L2 14L2 21L23 12L2 3Z" />
    </symbol>
    <symbol id="icon-send" viewBox="0 0 24 24">
        <path fill="currentColor" d="M2,21L23,12L2,3V10L17,12L2,14V21Z" />
    </symbol>
    <symbol id="icon-eye-off" viewBox="0 0 24 24">
        <path fill="currentColor" d="M2,5.27L3.28,4L20,20.72L18.73,22L15.65,18.92C14.5,19.3 13.28,19.5 12,19.5C7,19.5 2.73,16.39 1,12C1.69,10.24 2.79,8.69 4.19,7.46L2,5.27M12,9A3,3 0 0,1 15,12C15,12.35 14.94,12.69 14.83,13L11,9.17C11.31,9.06 11.65,9 12,9M12,4.5C17,4.5 21.27,7.61 23,12C22.18,14.08 20.79,15.88 19,17.19L17.58,15.76C18.94,14.82 20.06,13.54 20.82,12C19.17,8.64 15.76,6.5 12,6.5C10.91,6.5 9.84,6.68 8.84,7L7.3,5.47C8.74,4.85 10.33,4.5 12,4.5M3.18,12C4.83,15.36 8.24,17.5 12,17.5C12.69,17.5 13.37,17.43 14,17.29L11.72,15C10.29,14.85 9.15,13.71 9,12.28L5.6,8.87C4.61,9.72 3.78,10.78 3.18,12Z" />
    </symbol>
    <symbol id="icon-eye" viewBox="0 0 24 24">
        <path fill="currentColor" d="M12,9A3,3 0 0,1 15,12A3,3 0 0,1 12,15A3,3 0 0,1 9,12A3,3 0 0,1 12,9M12,4.5C17,4.5 21.27,7.61 23,12C21.27,16.39 17,19.5 12,19.5C7,19.5 2.73,16.39 1,12C2.73,7.61 7,4.5 12,4.5M3.18,12C4.83,15.36 8.24,17.5 12,17.5C15.76,17.5 19.17,15.36 20.82,12C19.17,8.64 15.76,6.5 12,6.5C8.24,6.5 4.83,8.64 3.18,12Z" />
    </symbol>
    <symbol id="icon-fast-outline" viewBox="0 0 24 24">
        <path fill="currentColor" d="M22 5.5H9C7.9 5.5 7 6.4 7 7.5V16.5C7 17.61 7.9 18.5 9 18.5H22C23.11 18.5 24 17.61 24 16.5V7.5C24 6.4 23.11 5.5 22 5.5M22 16.5H9V9.17L15.5 12.5L22 9.17V16.5M15.5 10.81L9 7.5H22L15.5 10.81M5 16.5C5 16.67 5.03 16.83 5.05 17H1C.448 17 0 16.55 0 16S.448 15 1 15H5V16.5M3 7H5.05C5.03 7.17 5 7.33 5 7.5V9H3C2.45 9 2 8.55 2 8S2.45 7 3 7M1 12C1 11.45 1.45 11 2 11H5V13H2C1.45 13 1 12.55 1 12Z" />
    </symbol>
    <symbol id="icon-email-check-outline" viewBox="0 0 24 24">
        <path fill="currentColor" d="M13 19C13 18.66 13.04 18.33 13.09 18H4V8L12 13L20 8V13.09C20.72 13.21 21.39 13.46 22 13.81V6C22 4.9 21.1 4 20 4H4C2.9 4 2 4.9 2 6V18C2 19.1 2.9 20 4 20H13.09C13.04 19.67 13 19.34 13 19M20 6L12 11L4 6H20M17.75 22.16L15 19.16L16.16 18L17.75 19.59L21.34 16L22.5 17.41L17.75 22.16" />
    </symbol>
    <symbol id="icon-email-outline" viewBox="0 0 24 24">
        <path fill="currentColor" d="M22 6C22 4.9 21.1 4 20 4H4C2.9 4 2 4.9 2 6V18C2 19.1 2.9 20 4 20H20C21.1 20 22 19.1 22 18V6M20 6L12 11L4 6H20M20 18H4V8L12 13L20 8V18Z" />
    </symbol>
    <symbol id="icon-cog-outline" viewBox="0 0 24 24">
        <title>cog-outline</title>
        <path fill="currentColor" d="M12,8A4,4 0 0,1 16,12A4,4 0 0,1 12,16A4,4 0 0,1 8,12A4,4 0 0,1 12,8M12,10A2,2 0 0,0 10,12A2,2 0 0,0 12,14A2,2 0 0,0 14,12A2,2 0 0,0 12,10M10,22C9.75,22 9.54,21.82 9.5,21.58L9.13,18.93C8.5,18.68 7.96,18.34 7.44,17.94L4.95,18.95C4.73,19.03 4.46,18.95 4.34,18.73L2.34,15.27C2.21,15.05 2.27,14.78 2.46,14.63L4.57,12.97L4.5,12L4.57,11L2.46,9.37C2.27,9.22 2.21,8.95 2.34,8.73L4.34,5.27C4.46,5.05 4.73,4.96 4.95,5.05L7.44,6.05C7.96,5.66 8.5,5.32 9.13,5.07L9.5,2.42C9.54,2.18 9.75,2 10,2H14C14.25,2 14.46,2.18 14.5,2.42L14.87,5.07C15.5,5.32 16.04,5.66 16.56,6.05L19.05,5.05C19.27,4.96 19.54,5.05 19.66,5.27L21.66,8.73C21.79,8.95 21.73,9.22 21.54,9.37L19.43,11L19.5,12L19.43,13L21.54,14.63C21.73,14.78 21.79,15.05 21.66,15.27L19.66,18.73C19.54,18.95 19.27,19.04 19.05,18.95L16.56,17.95C16.04,18.34 15.5,18.68 14.87,18.93L14.5,21.58C14.46,21.82 14.25,22 14,22H10M11.25,4L10.88,6.61C9.68,6.86 8.62,7.5 7.85,8.39L5.44,7.35L4.69,8.65L6.8,10.2C6.4,11.37 6.4,12.64 6.8,13.8L4.68,15.36L5.43,16.66L7.86,15.62C8.63,16.5 9.68,17.14 10.87,17.38L11.24,20H12.76L13.13,17.39C14.32,17.14 15.37,16.5 16.14,15.62L18.57,16.66L19.32,15.36L17.2,13.81C17.6,12.64 17.6,11.37 17.2,10.2L19.31,8.65L18.56,7.35L16.15,8.39C15.38,7.5 14.32,6.86 13.12,6.62L12.75,4H11.25Z" />
    </symbol>
</svg>
